<?xml version="1.0" encoding="UTF-8"?>
<!DOCTYPE svg PUBLIC "-//W3C//DTD SVG 1.1//EN" "http://www.w3.org/Graphics/SVG/1.1/DTD/svg11.dtd">
<svg xmlns="http://www.w3.org/2000/svg" version="1.1" width="25px" height="25px" style="shape-rendering:geometricPrecision; text-rendering:geometricPrecision; image-rendering:optimizeQuality; fill-rule:evenodd; clip-rule:evenodd" xmlns:xlink="http://www.w3.org/1999/xlink">
<g><path style="opacity:0.447" fill="#000000" d="M 3.5,-0.5 C 4.83333,-0.5 6.16667,-0.5 7.5,-0.5C 9.48718,0.343181 11.6539,1.00985 14,1.5C 15.301,1.36126 16.1344,0.694594 16.5,-0.5C 17.8333,-0.5 19.1667,-0.5 20.5,-0.5C 22.217,5.09447 20.717,9.76113 16,13.5C 15.026,17.1731 14.1926,20.8398 13.5,24.5C 11.1667,24.5 8.83333,24.5 6.5,24.5C 5.43089,21.592 5.26423,18.592 6,15.5C 7.64267,13.0232 9.47601,10.6898 11.5,8.5C 10.675,7.61432 9.67504,7.28099 8.5,7.5C 8.5,8.5 8.5,9.5 8.5,10.5C 6.5,10.5 4.5,10.5 2.5,10.5C 2.24401,6.73072 2.57734,3.06405 3.5,-0.5 Z M 4.5,2.5 C 9.54107,3.31633 14.5411,3.31633 19.5,2.5C 18.9802,6.53835 17.1469,9.87168 14,12.5C 12.8512,15.3926 12.3512,18.3926 12.5,21.5C 10.8333,21.5 9.16667,21.5 7.5,21.5C 7.30478,16.224 9.47144,12.224 14,9.5C 14.4828,8.55198 14.6495,7.55198 14.5,6.5C 12.8014,6.37959 11.1347,6.04626 9.5,5.5C 7.60305,5.72817 6.26972,6.72817 5.5,8.5C 4.53443,6.60395 4.2011,4.60395 4.5,2.5 Z"/></g>
</svg>
