<?xml version="1.0" encoding="UTF-8"?>
<!DOCTYPE svg PUBLIC "-//W3C//DTD SVG 1.1//EN" "http://www.w3.org/Graphics/SVG/1.1/DTD/svg11.dtd">
<svg xmlns="http://www.w3.org/2000/svg" version="1.1" width="25px" height="25px" style="shape-rendering:geometricPrecision; text-rendering:geometricPrecision; image-rendering:optimizeQuality; fill-rule:evenodd; clip-rule:evenodd" xmlns:xlink="http://www.w3.org/1999/xlink">
<g><path style="opacity:0.717" fill="#000000" d="M 1.5,0.5 C 8.75461,0.186781 15.9213,0.520114 23,1.5C 23.8123,8.7471 23.6456,15.9138 22.5,23C 15.2529,23.8123 8.08623,23.6456 1,22.5C 0.203625,15.0869 0.370292,7.75355 1.5,0.5 Z M 3.5,2.5 C 9.42544,2.19177 15.2588,2.5251 21,3.5C 21.8072,9.41628 21.6406,15.2496 20.5,21C 14.5837,21.8072 8.75039,21.6406 3,20.5C 2.21238,14.418 2.37905,8.41804 3.5,2.5 Z"/></g>
<g><path style="opacity:0.586" fill="#000000" d="M 15.5,4.5 C 21.0047,7.17117 20.6713,8.83783 14.5,9.5C 14.366,7.70848 14.6993,6.04181 15.5,4.5 Z"/></g>
<g><path style="opacity:0.584" fill="#000000" d="M 5.5,14.5 C 6.83333,14.5 8.16667,14.5 9.5,14.5C 9.4652,20.0241 7.79853,20.6908 4.5,16.5C 4.86273,15.8165 5.19607,15.1499 5.5,14.5 Z"/></g>
</svg>
