<?xml version="1.0" encoding="UTF-8"?>
<!DOCTYPE svg PUBLIC "-//W3C//DTD SVG 1.1//EN" "http://www.w3.org/Graphics/SVG/1.1/DTD/svg11.dtd">
<svg xmlns="http://www.w3.org/2000/svg" version="1.1" width="25px" height="25px" style="shape-rendering:geometricPrecision; text-rendering:geometricPrecision; image-rendering:optimizeQuality; fill-rule:evenodd; clip-rule:evenodd" xmlns:xlink="http://www.w3.org/1999/xlink">
<g><path style="opacity:0.386" fill="#000000" d="M 10.5,-0.5 C 11.5,-0.5 12.5,-0.5 13.5,-0.5C 18.8677,1.53434 22.5344,5.201 24.5,10.5C 24.5,11.5 24.5,12.5 24.5,13.5C 22.5344,18.799 18.8677,22.4657 13.5,24.5C 12.5,24.5 11.5,24.5 10.5,24.5C 5.13227,22.4657 1.4656,18.799 -0.5,13.5C -0.5,12.5 -0.5,11.5 -0.5,10.5C 1.4656,5.201 5.13227,1.53434 10.5,-0.5 Z M 7.5,2.5 C 9.83333,2.5 12.1667,2.5 14.5,2.5C 13.0634,10.3049 9.39677,11.4716 3.5,6C 4.73052,4.59524 6.06386,3.42857 7.5,2.5 Z M 17.5,3.5 C 20.3054,5.60334 21.9721,8.43667 22.5,12C 20.5582,14.901 18.2249,15.0676 15.5,12.5C 15.1667,11.6667 14.8333,10.8333 14.5,10C 14.8837,7.47916 15.8837,5.31249 17.5,3.5 Z M 2.5,9.5 C 11.2491,10.9736 12.4158,14.6402 6,20.5C 2.79264,17.3014 1.62597,13.6347 2.5,9.5 Z M 11.5,14.5 C 15.1638,13.9999 18.1638,15.1666 20.5,18C 17.4268,21.3687 13.7602,22.2021 9.5,20.5C 10.3721,18.5504 11.0388,16.5504 11.5,14.5 Z"/></g>
</svg>
