<?xml version="1.0" encoding="UTF-8"?>
<!DOCTYPE svg PUBLIC "-//W3C//DTD SVG 1.1//EN" "http://www.w3.org/Graphics/SVG/1.1/DTD/svg11.dtd">
<svg xmlns="http://www.w3.org/2000/svg" version="1.1" width="25px" height="25px" style="shape-rendering:geometricPrecision; text-rendering:geometricPrecision; image-rendering:optimizeQuality; fill-rule:evenodd; clip-rule:evenodd" xmlns:xlink="http://www.w3.org/1999/xlink">
<g><path style="opacity:0.441" fill="#000000" d="M 12.5,24.5 C 12.1667,24.5 11.8333,24.5 11.5,24.5C 2.53591,22.3441 -0.96409,16.6774 1,7.5C 1.41691,6.24402 2.25025,5.57735 3.5,5.5C 4.92466,1.69605 7.758,0.029385 12,0.5C 22.5794,2.31715 25.9127,8.31715 22,18.5C 19.4491,21.6809 16.2824,23.6809 12.5,24.5 Z M 3.5,5.5 C 15.5593,-0.558137 21.3926,3.10853 21,16.5C 17.7015,21.2205 13.2015,22.7205 7.5,21C 2.41642,16.9621 1.08309,11.7954 3.5,5.5 Z"/></g>
<g><path style="opacity:0.35" fill="#000000" d="M 10.5,6.5 C 13.179,6.52462 14.5123,7.85795 14.5,10.5C 10.551,10.6932 10.551,11.1932 14.5,12C 15.3106,14.2912 14.4772,16.1246 12,17.5C 8.58259,15.9281 8.74926,14.7614 12.5,14C 10.6969,13.3632 9.36359,12.1965 8.5,10.5C 9.63023,9.37765 10.2969,8.04432 10.5,6.5 Z"/></g>
</svg>
