<?xml version="1.0" encoding="UTF-8"?>
<!DOCTYPE svg PUBLIC "-//W3C//DTD SVG 1.1//EN" "http://www.w3.org/Graphics/SVG/1.1/DTD/svg11.dtd">
<svg xmlns="http://www.w3.org/2000/svg" version="1.1" width="50px" height="50px" style="shape-rendering:geometricPrecision; text-rendering:geometricPrecision; image-rendering:optimizeQuality; fill-rule:evenodd; clip-rule:evenodd" xmlns:xlink="http://www.w3.org/1999/xlink">
<g><path style="opacity:0.707" fill="#060606" d="M 19.5,2.5 C 33.1315,1.29472 38.2982,7.29472 35,20.5C 28,28.5 21,28.5 14,20.5C 10.9666,12.9236 12.8,6.92361 19.5,2.5 Z"/></g>
<g><path style="opacity:0.999" fill="#7e7e7e" d="M 21.5,4.5 C 30.4775,4.3098 34.3108,8.64313 33,17.5C 30.6471,22.4264 26.8138,24.2598 21.5,23C 16.2685,20.3674 14.4351,16.2008 16,10.5C 17.3597,7.97739 19.193,5.97739 21.5,4.5 Z"/></g>
<g><path style="opacity:0.81" fill="#080808" d="M 10.5,31.5 C 19.8393,31.3335 29.1726,31.5002 38.5,32C 44.0727,35.1717 46.0727,40.005 44.5,46.5C 31.1667,46.5 17.8333,46.5 4.5,46.5C 2.95185,39.8652 4.95185,34.8652 10.5,31.5 Z"/></g>
<g><path style="opacity:1" fill="#7c7c7c" d="M 12.5,33.5 C 20.5069,33.3336 28.5069,33.5003 36.5,34C 41.2832,35.9419 43.2832,39.4419 42.5,44.5C 30.5,44.5 18.5,44.5 6.5,44.5C 5.93315,39.4074 7.93315,35.7408 12.5,33.5 Z"/></g>
</svg>
