<?xml version="1.0" encoding="UTF-8"?>
<!DOCTYPE svg PUBLIC "-//W3C//DTD SVG 1.1//EN" "http://www.w3.org/Graphics/SVG/1.1/DTD/svg11.dtd">
<svg xmlns="http://www.w3.org/2000/svg" version="1.1" width="170px" height="215px" style="shape-rendering:geometricPrecision; text-rendering:geometricPrecision; image-rendering:optimizeQuality; fill-rule:evenodd; clip-rule:evenodd" xmlns:xlink="http://www.w3.org/1999/xlink">
<g><path style="opacity:1" fill="#fcfcfc" d="M -0.5,-0.5 C 56.1667,-0.5 112.833,-0.5 169.5,-0.5C 169.5,71.1667 169.5,142.833 169.5,214.5C 158.833,214.5 148.167,214.5 137.5,214.5C 146.855,210.94 156.521,207.94 166.5,205.5C 168.598,195.233 168.932,184.9 167.5,174.5C 160.993,170.414 154.66,166.08 148.5,161.5C 148.167,158.167 147.833,154.833 147.5,151.5C 149.365,129.812 150.865,108.145 152,86.5C 145,74.5 138,62.5 131,50.5C 121.516,43.0891 111.516,36.4224 101,30.5C 101.022,26.0675 101.855,21.7341 103.5,17.5C 101.231,12.4627 98.5641,7.62932 95.5,3C 84.845,1.77827 74.1783,1.1116 63.5,1C 58.872,5.11843 55.372,9.95176 53,15.5C 51.5488,26.2069 49.8821,36.8735 48,47.5C 38.7026,55.1287 29.7026,63.1287 21,71.5C 14.3639,82.3008 7.53057,92.9675 0.5,103.5C 1.09001,104.799 2.09001,105.632 3.5,106C 20.5487,111.683 37.5487,117.35 54.5,123C 75.8212,124.868 97.1545,126.368 118.5,127.5C 116.331,111.494 114.165,95.4943 112,79.5C 106.548,70.2741 102.048,60.9408 98.5,51.5C 105.179,55.8412 112.179,59.6746 119.5,63C 124.207,71.5813 129.04,80.0813 134,88.5C 133.661,111.567 132.161,134.567 129.5,157.5C 108.342,159.578 87.5089,162.911 67,167.5C 64.1954,174.914 61.1954,182.247 58,189.5C 57.3333,190.833 57.3333,192.167 58,193.5C 67.6826,200.363 77.1826,207.363 86.5,214.5C 57.5,214.5 28.5,214.5 -0.5,214.5C -0.5,142.833 -0.5,71.1667 -0.5,-0.5 Z"/></g>
<g><path style="opacity:1" fill="#040404" d="M 137.5,214.5 C 120.5,214.5 103.5,214.5 86.5,214.5C 77.1826,207.363 67.6826,200.363 58,193.5C 57.3333,192.167 57.3333,190.833 58,189.5C 61.1954,182.247 64.1954,174.914 67,167.5C 87.5089,162.911 108.342,159.578 129.5,157.5C 132.161,134.567 133.661,111.567 134,88.5C 129.04,80.0813 124.207,71.5813 119.5,63C 112.179,59.6746 105.179,55.8412 98.5,51.5C 102.048,60.9408 106.548,70.2741 112,79.5C 114.165,95.4943 116.331,111.494 118.5,127.5C 97.1545,126.368 75.8212,124.868 54.5,123C 37.5487,117.35 20.5487,111.683 3.5,106C 2.09001,105.632 1.09001,104.799 0.5,103.5C 7.53057,92.9675 14.3639,82.3008 21,71.5C 29.7026,63.1287 38.7026,55.1287 48,47.5C 49.8821,36.8735 51.5488,26.2069 53,15.5C 55.372,9.95176 58.872,5.11843 63.5,1C 74.1783,1.1116 84.845,1.77827 95.5,3C 98.5641,7.62932 101.231,12.4627 103.5,17.5C 101.855,21.7341 101.022,26.0675 101,30.5C 111.516,36.4224 121.516,43.0891 131,50.5C 138,62.5 145,74.5 152,86.5C 150.865,108.145 149.365,129.812 147.5,151.5C 147.833,154.833 148.167,158.167 148.5,161.5C 154.66,166.08 160.993,170.414 167.5,174.5C 168.932,184.9 168.598,195.233 166.5,205.5C 156.521,207.94 146.855,210.94 137.5,214.5 Z"/></g>
</svg>
