<?xml version="1.0" encoding="UTF-8"?>
<!DOCTYPE svg PUBLIC "-//W3C//DTD SVG 1.1//EN" "http://www.w3.org/Graphics/SVG/1.1/DTD/svg11.dtd">
<svg xmlns="http://www.w3.org/2000/svg" version="1.1" width="400px" height="650px" style="shape-rendering:geometricPrecision; text-rendering:geometricPrecision; image-rendering:optimizeQuality; fill-rule:evenodd; clip-rule:evenodd" xmlns:xlink="http://www.w3.org/1999/xlink">
<g><path style="opacity:1" fill="#fefefe" d="M -0.5,-0.5 C 132.833,-0.5 266.167,-0.5 399.5,-0.5C 399.5,214.833 399.5,430.167 399.5,645.5C 397.202,639.764 395.369,633.764 394,627.5C 362.023,489.779 329.856,352.112 297.5,214.5C 307.758,211.304 318.092,208.304 328.5,205.5C 329.841,195.53 330.341,185.53 330,175.5C 323.508,170.587 316.842,165.92 310,161.5C 309.333,154.833 309.333,148.167 310,141.5C 311.682,123.145 313.016,104.812 314,86.5C 307,74.5 300,62.5 293,50.5C 283.172,43.5852 273.172,36.9186 263,30.5C 263.022,26.0675 263.855,21.7341 265.5,17.5C 263.438,13.0442 261.105,8.71091 258.5,4.5C 247.928,2.55444 237.261,1.7211 226.5,2C 223.027,4.80621 219.86,7.97287 217,11.5C 214.667,23.8292 212.334,36.1625 210,48.5C 201.036,55.795 192.37,63.4617 184,71.5C 177.393,82.4372 170.393,93.1038 163,103.5C 162.544,104.744 163.044,105.577 164.5,106C 109.636,176.353 54.6363,246.52 -0.5,316.5C -0.5,210.833 -0.5,105.167 -0.5,-0.5 Z"/></g>
<g><path style="opacity:1" fill="#000000" d="M 399.5,645.5 C 399.5,646.833 399.5,648.167 399.5,649.5C 266.167,649.5 132.833,649.5 -0.5,649.5C -0.5,538.5 -0.5,427.5 -0.5,316.5C 54.6363,246.52 109.636,176.353 164.5,106C 163.044,105.577 162.544,104.744 163,103.5C 170.393,93.1038 177.393,82.4372 184,71.5C 192.37,63.4617 201.036,55.795 210,48.5C 212.334,36.1625 214.667,23.8292 217,11.5C 219.86,7.97287 223.027,4.80621 226.5,2C 237.261,1.7211 247.928,2.55444 258.5,4.5C 261.105,8.71091 263.438,13.0442 265.5,17.5C 263.855,21.7341 263.022,26.0675 263,30.5C 273.172,36.9186 283.172,43.5852 293,50.5C 300,62.5 307,74.5 314,86.5C 313.016,104.812 311.682,123.145 310,141.5C 309.333,148.167 309.333,154.833 310,161.5C 316.842,165.92 323.508,170.587 330,175.5C 330.341,185.53 329.841,195.53 328.5,205.5C 318.092,208.304 307.758,211.304 297.5,214.5C 329.856,352.112 362.023,489.779 394,627.5C 395.369,633.764 397.202,639.764 399.5,645.5 Z"/></g>
<g><path style="opacity:1" fill="#fafafa" d="M 260.5,52.5 C 268.517,55.9257 276.017,60.259 283,65.5C 287.92,73.6717 292.587,82.005 297,90.5C 295.691,112.824 294.191,135.157 292.5,157.5C 289.833,157.833 287.167,158.167 284.5,158.5C 282.483,148.433 280.15,138.433 277.5,128.5C 278.325,127.614 279.325,127.281 280.5,127.5C 278.754,111.446 276.588,95.4459 274,79.5C 268.962,70.7568 264.462,61.7568 260.5,52.5 Z"/></g>
</svg>
